<svg width="80" height="80" viewBox="0 0 80 80" fill="none" xmlns="http://www.w3.org/2000/svg">
<path d="M50.6258 65.0078C51.6633 65.0078 52.5008 65.8453 52.5008 66.8828C52.5008 67.9203 51.6633 68.7578 50.6258 68.7578H29.3633C28.3258 68.7578 27.4883 67.9203 27.4883 66.8828C27.4883 65.8453 28.3258 65.0078 29.3633 65.0078H50.6258Z" fill="#94C1FF"/>
<path d="M78.75 8.74219V11.2422H1.25V8.74219C1.25 7.36719 2.3625 6.24219 3.75 6.24219H76.25C77.6375 6.24219 78.75 7.36844 78.75 8.74219Z" fill="#D7E9FF"/>
<path d="M52.3755 21.37C59.213 28.2063 59.213 39.2825 52.3755 46.1188C45.5367 52.9575 34.463 52.9575 27.6242 46.1188C20.7867 39.2825 20.7867 28.2063 27.6242 21.37C34.463 14.5313 45.538 14.5313 52.3755 21.37Z" fill="#94C1FF"/>
<path d="M52.3736 21.3701C48.4761 17.4713 43.2023 15.8038 38.1211 16.3501C41.9548 16.7601 45.6798 18.4276 48.6198 21.3701C55.4573 28.2063 55.4573 39.2826 48.6198 46.1188C45.6786 49.0613 41.9548 50.7263 38.1211 51.1388C43.2023 51.6838 48.4761 50.0188 52.3736 46.1188C59.2111 39.2826 59.2111 28.2051 52.3736 21.3701Z" fill="#5C9EFF"/>
<path d="M1.25 9.99756C0.55875 9.99756 0 9.43881 0 8.74756C0 6.68006 1.6825 4.99756 3.75 4.99756C4.44125 4.99756 5 5.55631 5 6.24756C5 6.93881 4.44125 7.49756 3.75 7.49756C3.06 7.49756 2.5 8.05756 2.5 8.74756C2.5 9.43881 1.94125 9.99756 1.25 9.99756Z" fill="#0065C6"/>
<path d="M78.75 9.99756C78.0588 9.99756 77.5 9.43881 77.5 8.74756C77.5 8.05756 76.94 7.49756 76.25 7.49756C75.5588 7.49756 75 6.93881 75 6.24756C75 5.55631 75.5588 4.99756 76.25 4.99756C78.3175 4.99756 80 6.68006 80 8.74756C80 9.43881 79.4412 9.99756 78.75 9.99756Z" fill="#0065C6"/>
<path d="M76.25 7.49756H3.75C3.05875 7.49756 2.5 6.93881 2.5 6.24756C2.5 5.55631 3.05875 4.99756 3.75 4.99756H76.25C76.9413 4.99756 77.5 5.55631 77.5 6.24756C77.5 6.93881 76.9413 7.49756 76.25 7.49756Z" fill="#0065C6"/>
<path d="M5.0375 9.99756C4.34625 9.99756 3.78125 9.43881 3.78125 8.74756C3.78125 8.05631 4.33375 7.49756 5.02375 7.49756H5.0375C5.7275 7.49756 6.2875 8.05631 6.2875 8.74756C6.2875 9.43881 5.7275 9.99756 5.0375 9.99756Z" fill="#0065C6"/>
<path d="M8.7875 9.99756C8.09625 9.99756 7.53125 9.43881 7.53125 8.74756C7.53125 8.05631 8.08375 7.49756 8.77375 7.49756H8.7875C9.4775 7.49756 10.0375 8.05631 10.0375 8.74756C10.0375 9.43881 9.4775 9.99756 8.7875 9.99756Z" fill="#0065C6"/>
<path d="M12.5414 9.99756C11.8502 9.99756 11.2852 9.43881 11.2852 8.74756C11.2852 8.05631 11.8377 7.49756 12.5277 7.49756H12.5414C13.2314 7.49756 13.7914 8.05631 13.7914 8.74756C13.7914 9.43881 13.2314 9.99756 12.5414 9.99756Z" fill="#0065C6"/>
<path d="M1.25 75.0026C0.55875 75.0026 0 74.4438 0 73.7526V8.74756C0 8.05631 0.55875 7.49756 1.25 7.49756C1.94125 7.49756 2.5 8.05631 2.5 8.74756V73.7526C2.5 74.4438 1.94125 75.0026 1.25 75.0026Z" fill="#0065C6"/>
<path d="M78.75 75.0026C78.0588 75.0026 77.5 74.4438 77.5 73.7526V8.74756C77.5 8.05631 78.0588 7.49756 78.75 7.49756C79.4412 7.49756 80 8.05631 80 8.74756V73.7526C80 74.4438 79.4412 75.0026 78.75 75.0026Z" fill="#0065C6"/>
<path d="M78.75 12.4976H1.25C0.55875 12.4976 0 11.9388 0 11.2476C0 10.5563 0.55875 9.99756 1.25 9.99756H78.75C79.4413 9.99756 80 10.5563 80 11.2476C80 11.9388 79.4413 12.4976 78.75 12.4976Z" fill="#0065C6"/>
<path d="M78.75 75.0029H1.25C0.55875 75.0029 0 74.4442 0 73.7529C0 73.0617 0.55875 72.5029 1.25 72.5029H78.75C79.4413 72.5029 80 73.0617 80 73.7529C80 74.4442 79.4413 75.0029 78.75 75.0029Z" fill="#0065C6"/>
<path d="M39.9988 52.4961C34.99 52.4961 30.2825 50.5461 26.7413 47.0049C23.2 43.4636 21.2488 38.7549 21.25 33.7474C21.25 28.7386 23.2012 24.0298 26.7425 20.4886C30.2837 16.9473 34.9925 14.9961 40 14.9961C45.0088 14.9961 49.7162 16.9473 53.2575 20.4886C56.7987 24.0298 58.75 28.7373 58.75 33.7461C58.75 38.7549 56.7987 43.4624 53.2575 47.0036C49.7162 50.5449 45.0075 52.4961 39.9988 52.4961ZM40 17.4961C35.66 17.4961 31.58 19.1873 28.51 22.2561C25.4413 25.3261 23.75 29.4061 23.75 33.7474C23.7488 38.0886 25.44 42.1686 28.5087 45.2374C31.5775 48.3061 35.6588 49.9961 39.9988 49.9961C44.3388 49.9961 48.42 48.3061 51.49 45.2361C54.5588 42.1674 56.25 38.0874 56.25 33.7461C56.25 29.4048 54.5588 25.3248 51.49 22.2561C48.4213 19.1873 44.3413 17.4961 40 17.4961Z" fill="#0065C6"/>
<path d="M50.6308 70.0059H29.3633C28.672 70.0059 28.1133 69.4471 28.1133 68.7559C28.1133 68.0646 28.672 67.5059 29.3633 67.5059H50.6308C51.322 67.5059 51.8808 68.0646 51.8808 68.7559C51.8808 69.4471 51.322 70.0059 50.6308 70.0059Z" fill="#0065C6"/>
<path d="M50.6308 66.2559H29.3633C28.672 66.2559 28.1133 65.6971 28.1133 65.0059C28.1133 64.3146 28.672 63.7559 29.3633 63.7559H50.6308C51.322 63.7559 51.8808 64.3146 51.8808 65.0059C51.8808 65.6971 51.322 66.2559 50.6308 66.2559Z" fill="#0065C6"/>
<path d="M29.3633 70.0059C27.6395 70.0059 26.2383 68.6046 26.2383 66.8809C26.2383 65.1571 27.6395 63.7559 29.3633 63.7559C30.0545 63.7559 30.6133 64.3146 30.6133 65.0059C30.6133 65.6971 30.0545 66.2559 29.3633 66.2559C29.0195 66.2559 28.7383 66.5371 28.7383 66.8809C28.7383 67.2246 29.0195 67.5059 29.3633 67.5059C30.0545 67.5059 30.6133 68.0646 30.6133 68.7559C30.6133 69.4471 30.0545 70.0059 29.3633 70.0059Z" fill="#0065C6"/>
<path d="M50.6328 70.0059C49.9416 70.0059 49.3828 69.4471 49.3828 68.7559C49.3828 68.0646 49.9416 67.5059 50.6328 67.5059C50.9766 67.5059 51.2578 67.2246 51.2578 66.8809C51.2578 66.5371 50.9766 66.2559 50.6328 66.2559C49.9416 66.2559 49.3828 65.6971 49.3828 65.0059C49.3828 64.3146 49.9416 63.7559 50.6328 63.7559C52.3566 63.7559 53.7578 65.1571 53.7578 66.8809C53.7578 68.6046 52.3566 70.0059 50.6328 70.0059Z" fill="#0065C6"/>
<path d="M68.7558 57.51H11.2383C10.547 57.51 9.98828 56.9513 9.98828 56.26C9.98828 55.5688 10.547 55.01 11.2383 55.01H68.7558C69.447 55.01 70.0058 55.5688 70.0058 56.26C70.0058 56.9513 69.447 57.51 68.7558 57.51Z" fill="#0065C6"/>
<path d="M57.5047 61.2615H22.4922C21.8009 61.2615 21.2422 60.7027 21.2422 60.0115C21.2422 59.3202 21.8009 58.7615 22.4922 58.7615H57.5047C58.1959 58.7615 58.7547 59.3202 58.7547 60.0115C58.7547 60.7027 58.1959 61.2615 57.5047 61.2615Z" fill="#0065C6"/>
<path d="M33.8128 41.1826C33.4928 41.1826 33.1728 41.0601 32.9291 40.8163C32.4403 40.3276 32.4403 39.5376 32.9291 39.0488L45.3003 26.6788C45.7891 26.1901 46.5791 26.1901 47.0678 26.6788C47.5566 27.1676 47.5566 27.9576 47.0678 28.4463L34.6966 40.8163C34.4528 41.0613 34.1328 41.1826 33.8128 41.1826Z" fill="#0065C6"/>
<path d="M46.1841 41.1826C45.8641 41.1826 45.5441 41.0601 45.3003 40.8163L32.9291 28.4463C32.4403 27.9576 32.4403 27.1676 32.9291 26.6788C33.4178 26.1901 34.2078 26.1901 34.6966 26.6788L47.0678 39.0488C47.5566 39.5376 47.5566 40.3276 47.0678 40.8163C46.8241 41.0613 46.5041 41.1826 46.1841 41.1826Z" fill="#0065C6"/>
</svg>
