<svg width="40" height="30" viewBox="0 0 40 30" fill="none" xmlns="http://www.w3.org/2000/svg">
<path d="M19.7319 15.5275C24.0129 15.5275 27.4957 12.0447 27.4957 7.76374C27.4957 3.48277 24.0129 0 19.7319 0C15.451 0 11.9682 3.48277 11.9682 7.76374C11.9682 12.0447 15.451 15.5275 19.7319 15.5275ZM19.7319 2.54205C22.6112 2.54205 24.9536 4.88447 24.9536 7.76374C24.9536 10.643 22.6112 12.9854 19.7319 12.9854C16.8527 12.9854 14.5103 10.643 14.5103 7.76374C14.5103 4.88447 16.8527 2.54205 19.7319 2.54205ZM7.48459 18.081C10.1801 18.081 12.373 15.8881 12.373 13.1927C12.373 10.4972 10.1801 8.30424 7.48459 8.30424C4.78914 8.30424 2.59623 10.4972 2.59623 13.1927C2.59623 15.8881 4.78914 18.081 7.48459 18.081ZM7.48459 10.8463C8.77841 10.8463 9.83098 11.8989 9.83098 13.1927C9.83098 14.4864 8.77841 15.539 7.48459 15.539C6.19085 15.539 5.13828 14.4864 5.13828 13.1927C5.13828 11.8989 6.19085 10.8463 7.48459 10.8463ZM31.9172 18.081C34.6126 18.081 36.8055 15.8881 36.8055 13.1927C36.8055 10.4972 34.6126 8.30424 31.9172 8.30424C29.2217 8.30424 27.0287 10.4972 27.0287 13.1927C27.0288 15.8881 29.2217 18.081 31.9172 18.081ZM31.9172 10.8463C33.2109 10.8463 34.2635 11.8989 34.2635 13.1927C34.2635 14.4864 33.2109 15.539 31.9172 15.539C30.6234 15.539 29.5708 14.4864 29.5708 13.1927C29.5709 11.8989 30.6234 10.8463 31.9172 10.8463ZM39.4018 22.7768V24.8733C39.4018 25.5752 38.8327 26.1443 38.1307 26.1443C37.4288 26.1443 36.8597 25.5752 36.8597 24.8733V22.7768C36.8597 22.5579 36.7306 22.3588 36.5307 22.2695L34.3529 21.2972H30.2332C31.386 22.143 32.0934 23.5001 32.0934 24.9659V28.729C32.0934 29.4309 31.5243 30 30.8224 30C30.1204 30 29.5513 29.4309 29.5513 28.729V24.9659C29.5513 24.175 29.0846 23.4555 28.3624 23.1331L24.2571 21.3H23.898C22.1846 24.7564 17.2192 24.7605 15.5037 21.3H15.1447L11.0394 23.1331C10.3171 23.4555 9.85044 24.175 9.85044 24.9659V28.729C9.85044 29.4309 9.28134 30 8.57942 30C7.87749 30 7.30839 29.4309 7.30839 28.729V24.9659C7.30839 23.5001 8.0158 22.143 9.16862 21.2971H5.04875L2.87109 22.2695C2.67114 22.3588 2.54205 22.5578 2.54205 22.7767V24.8732C2.54205 25.5752 1.97295 26.1443 1.27102 26.1443C0.569101 26.1443 0 25.5752 0 24.8732V22.7767C0 21.5561 0.720115 20.4459 1.83472 19.9483C4.48132 18.7665 4.41808 18.755 4.77794 18.755C10.603 18.755 10.3342 18.7133 10.6749 18.8654L12.5184 19.6886L14.3556 18.8682C14.6741 18.726 14.7541 18.7578 16.3845 18.7578C16.9695 18.7578 17.4789 19.157 17.6187 19.7251C18.1515 21.8903 21.2501 21.8913 21.7831 19.7251C21.923 19.1571 22.4324 18.7578 23.0174 18.7578H24.5281C24.886 18.7578 24.9021 18.8039 26.8835 19.6886C28.8856 18.7946 28.8906 18.755 29.2453 18.755C35.0703 18.755 34.8014 18.7132 35.1422 18.8654L37.5672 19.9482C38.6817 20.4459 39.4018 21.5562 39.4018 22.7768Z" fill="white"/>
</svg>
