<svg width="30" height="30" viewBox="0 0 30 30" fill="none" xmlns="http://www.w3.org/2000/svg">
<g clip-path="url(#clip0)">
<path d="M11.25 12.5C7.80375 12.5 5 9.69625 5 6.25C5 2.80375 7.80375 0 11.25 0C14.6962 0 17.5 2.80375 17.5 6.25C17.5 9.69625 14.6962 12.5 11.25 12.5ZM11.25 1.875C8.83749 1.875 6.875 3.8375 6.875 6.25C6.875 8.6625 8.83749 10.625 11.25 10.625C13.6625 10.625 15.625 8.6625 15.625 6.25C15.625 3.8375 13.6625 1.875 11.25 1.875Z" fill="white"/>
<path d="M8.125 26.25H0.9375C0.42 26.25 0 25.83 0 25.3125V20.9375C0 17.6638 2.66375 15 5.9375 15H16.5625C18.1812 15 19.7425 15.6675 20.8437 16.8313C21.2 17.2075 21.1825 17.8 20.8075 18.1575C20.4312 18.5113 19.8375 18.4962 19.4812 18.1212C18.7325 17.33 17.6687 16.8763 16.5625 16.8763H5.9375C3.6975 16.8763 1.875 18.6987 1.875 20.9387V24.3762H8.125C8.6425 24.3762 9.0625 24.7962 9.0625 25.3137C9.0625 25.8312 8.6425 26.25 8.125 26.25Z" fill="white"/>
<path d="M18.125 30.0001C17.7888 30.0001 17.4787 29.8201 17.3112 29.5276L15.0812 25.6251H12.1875C11.67 25.6251 11.25 25.2051 11.25 24.6876C11.25 24.17 11.67 23.75 12.1875 23.75H15.625C15.9612 23.75 16.2725 23.9313 16.4388 24.2225L18.0363 27.0176L21.0238 20.5438C21.1725 20.2225 21.49 20.0113 21.8438 19.9988C22.21 20.015 22.5288 20.1775 22.6975 20.4875L26.1812 26.8738H29.0625C29.58 26.8738 30 27.2938 30 27.8113C30 28.3288 29.58 28.7501 29.0625 28.7501H25.625C25.2825 28.7501 24.9662 28.5626 24.8025 28.2613L21.945 23.0238L18.9762 29.4563C18.8287 29.7751 18.5163 29.9851 18.1663 30.0001C18.1512 30.0001 18.1388 30.0001 18.125 30.0001Z" fill="white"/>
</g>
<defs>
<clipPath id="clip0">
<rect width="30" height="30" fill="white"/>
</clipPath>
</defs>
</svg>
