<svg width="30" height="30" viewBox="0 0 30 30" fill="none" xmlns="http://www.w3.org/2000/svg">
<path d="M13.2422 30C15.1807 30 16.7578 28.4229 16.7578 26.4844V21.1523C16.7578 20.1831 17.5464 19.3945 18.5156 19.3945H20.3619C20.7701 21.398 22.5458 22.9102 24.668 22.9102C27.0911 22.9102 29.0625 20.9388 29.0625 18.5156C29.0625 16.0925 27.0911 14.1211 24.668 14.1211C22.5458 14.1211 20.7702 15.6333 20.3619 17.6367H18.5156C16.5771 17.6367 15 19.2138 15 21.1523V26.4844C15 27.4536 14.2114 28.2422 13.2422 28.2422C12.2729 28.2422 11.4844 27.4536 11.4844 26.4844V21.1523H12.3633C12.8487 21.1523 13.2422 20.7588 13.2422 20.2734V17.5318L18.6242 13.2262C19.6723 12.3877 20.2734 11.137 20.2734 9.79471V6.15234C20.2734 4.03014 18.7612 2.25457 16.7578 1.84623V0.878906C16.7578 0.393516 16.3643 0 15.8789 0H14.1211C12.6672 0 11.4844 1.18283 11.4844 2.63672C11.4844 4.09061 12.6672 5.27344 14.1211 5.27344H15.8789C16.3643 5.27344 16.7578 4.87992 16.7578 4.39453V3.6668C17.7808 4.02961 18.5156 5.00654 18.5156 6.15234V9.79471C18.5156 10.6001 18.1549 11.3505 17.526 11.8536L16.889 12.3633H4.32199L3.6849 11.8536C3.05602 11.3505 2.69531 10.6001 2.69531 9.79471V6.15234C2.69531 5.00654 3.43014 4.02961 4.45312 3.6668V4.39453C4.45312 4.87992 4.84664 5.27344 5.33203 5.27344H7.08984C8.54373 5.27344 9.72656 4.09061 9.72656 2.63672C9.72656 1.18283 8.54373 0 7.08984 0H5.33203C4.84664 0 4.45312 0.393516 4.45312 0.878906V1.84623C2.44969 2.25457 0.9375 4.03014 0.9375 6.15234V9.79471C0.9375 11.137 1.53861 12.3877 2.58674 13.2262L7.96875 17.5318V20.2734C7.96875 20.7588 8.36227 21.1523 8.84766 21.1523H9.72656V26.4844C9.72656 28.4229 11.3037 30 13.2422 30ZM24.668 15.8789C26.1219 15.8789 27.3047 17.0617 27.3047 18.5156C27.3047 19.9695 26.1219 21.1523 24.668 21.1523C23.2141 21.1523 22.0312 19.9695 22.0312 18.5156C22.0312 17.0617 23.2141 15.8789 24.668 15.8789ZM15 3.51562H14.1211C13.6365 3.51562 13.2422 3.12135 13.2422 2.63672C13.2422 2.15209 13.6365 1.75781 14.1211 1.75781H15V3.51562ZM6.21094 1.75781H7.08984C7.57447 1.75781 7.96875 2.15209 7.96875 2.63672C7.96875 3.12135 7.57447 3.51562 7.08984 3.51562H6.21094V1.75781ZM9.39674 16.4231L6.51926 14.1211H14.6917L11.8143 16.4231C11.6057 16.5898 11.4844 16.8424 11.4844 17.1094V19.3945H9.72656V17.1094C9.72656 16.8424 9.60522 16.5898 9.39674 16.4231Z" fill="white"/>
</svg>
