<svg width="16" height="20" viewBox="0 0 16 20" fill="none" xmlns="http://www.w3.org/2000/svg">
<path d="M15.8801 6.43066V18.2143C15.8801 19.2005 15.079 20 14.0908 20H1.7893C0.801087 20 0 19.2005 0 18.2143V1.78571C0 0.799477 0.801087 0 1.7893 0H9.44736C9.66298 0 9.87324 0.0517907 10.0614 0.148451C10.1843 0.211549 15.6942 5.73239 15.76 5.87702C15.8384 6.0493 15.8801 6.23783 15.8801 6.43066Z" fill="#B0D3F0"/>
<path d="M15.7596 5.87689H11.2136C10.5456 5.87689 10.0039 5.33524 10.0039 4.66683V0.121155C10.1492 0.186748 10.2824 0.278499 10.3971 0.393187L15.488 5.48454C15.6027 5.59922 15.694 5.73202 15.7596 5.87689Z" fill="#90BAE1"/>
<path d="M12.2457 17.9535H3.63407C2.7451 17.9535 2.02441 17.2328 2.02441 16.3439V10.1349C2.02441 9.24595 2.7451 8.52527 3.63407 8.52527H12.2457C13.1347 8.52527 13.8554 9.24595 13.8554 10.1349V16.3439C13.8554 17.2329 13.1347 17.9535 12.2457 17.9535V17.9535Z" fill="#EEEEEE"/>
<path d="M12.7993 17.8559C12.8359 17.8427 12.8718 17.8278 12.9072 17.8121C12.8718 17.8282 12.8359 17.8427 12.7993 17.8559Z" fill="#9EC8FC"/>
<path d="M13.8482 16.4962C13.7717 17.3139 13.0836 17.9538 12.2457 17.9538H3.63407C2.74514 17.9538 2.02441 17.233 2.02441 16.3441V16.3063L4.46506 13.5405C4.7218 13.3485 5.07552 13.3542 5.32623 13.5534L6.41717 14.4202C6.75319 14.6874 7.23971 14.6439 7.52301 14.3208L9.53468 12.027C9.83085 11.689 10.3637 11.7107 10.6317 12.0717L13.8482 16.4962Z" fill="#26B99A"/>
<path d="M12.7993 17.8559C12.8359 17.8427 12.8718 17.8278 12.9072 17.8121C12.8718 17.8282 12.8359 17.8427 12.7993 17.8559Z" fill="#B9A1D3"/>
<path d="M6.47478 12.0753C6.95434 12.0753 7.34311 11.6866 7.34311 11.207C7.34311 10.7274 6.95434 10.3387 6.47478 10.3387C5.99521 10.3387 5.60645 10.7274 5.60645 11.207C5.60645 11.6866 5.99521 12.0753 6.47478 12.0753Z" fill="#F0C419"/>
</svg>
