<svg width="20" height="20" viewBox="0 0 20 20" fill="none" xmlns="http://www.w3.org/2000/svg">
<path d="M2.49999 0H13.1206L18.75 5.60752V18.75C18.75 19.4406 18.19 20 17.5 20H2.49999C1.80997 20 1.25 19.4406 1.25 18.75V1.24999C1.25 0.559387 1.81003 0 2.49999 0Z" fill="#E2574C"/>
<path d="M18.7319 5.62519H14.375C13.685 5.62519 13.125 5.06522 13.125 4.3752V0.0126953L18.7319 5.62519Z" fill="#B53629"/>
<path d="M14.0608 9.4767C14.2702 9.4767 14.3727 9.29421 14.3727 9.11734C14.3727 8.93419 14.2659 8.75732 14.0608 8.75732H12.8684C12.6352 8.75732 12.5052 8.95043 12.5052 9.16358V12.0942C12.5052 12.3554 12.654 12.5004 12.8552 12.5004C13.0552 12.5004 13.2046 12.3554 13.2046 12.0942V11.2898H13.9259C14.1496 11.2898 14.2615 11.1067 14.2615 10.9248C14.2615 10.7467 14.1496 10.5698 13.9259 10.5698H13.2046V9.4767H14.0608ZM10.0302 8.75732H9.15771C8.92083 8.75732 8.75269 8.91984 8.75269 9.16105V12.0967C8.75269 12.3961 8.99455 12.4898 9.16767 12.4898H10.0833C11.167 12.4898 11.8827 11.7767 11.8827 10.6761C11.8821 9.51234 11.2084 8.75732 10.0302 8.75732ZM10.0721 11.7661H9.54023V9.4811H10.0196C10.7453 9.4811 11.0609 9.96799 11.0609 10.6398C11.0609 11.2686 10.7508 11.7661 10.0721 11.7661ZM6.87587 8.75732H6.0115C5.76712 8.75732 5.63086 8.91854 5.63086 9.16358V12.0942C5.63086 12.3554 5.7871 12.5004 5.99708 12.5004C6.20706 12.5004 6.3633 12.3554 6.3633 12.0942V11.2385H6.90516C7.5739 11.2385 8.12579 10.7648 8.12579 10.0029C8.12585 9.25735 7.59337 8.75732 6.87587 8.75732ZM6.86151 10.5511H6.36336V9.44547H6.86151C7.16901 9.44547 7.36463 9.68545 7.36463 9.99858C7.36399 10.3111 7.16901 10.5511 6.86151 10.5511Z" fill="white"/>
</svg>
