<svg width="20" height="20" viewBox="0 0 20 20" fill="none" xmlns="http://www.w3.org/2000/svg">
<path d="M19.375 16.875H10.625C10.28 16.875 10 16.5962 10 16.25C10 15.9037 10 4.095 10 3.75C10 3.405 10.28 3.125 10.625 3.125H19.375C19.72 3.125 20 3.405 20 3.75V16.25C20 16.5962 19.72 16.875 19.375 16.875Z" fill="#ECEFF1"/>
<path d="M16.875 6.875H10.625C10.28 6.875 10 6.59625 10 6.25C10 5.90375 10.28 5.625 10.625 5.625H16.875C17.22 5.625 17.5 5.905 17.5 6.25C17.5 6.595 17.22 6.875 16.875 6.875Z" fill="#1976D2"/>
<path d="M16.875 9.375H10.625C10.28 9.375 10 9.09625 10 8.75C10 8.40375 10.28 8.125 10.625 8.125H16.875C17.22 8.125 17.5 8.405 17.5 8.75C17.5 9.095 17.22 9.375 16.875 9.375Z" fill="#1976D2"/>
<path d="M16.875 11.875H10.625C10.28 11.875 10 11.5962 10 11.25C10 10.9038 10.28 10.625 10.625 10.625H16.875C17.22 10.625 17.5 10.905 17.5 11.25C17.5 11.595 17.22 11.875 16.875 11.875Z" fill="#1976D2"/>
<path d="M16.875 14.375H10.625C10.28 14.375 10 14.0962 10 13.75C10 13.4038 10.28 13.125 10.625 13.125H16.875C17.22 13.125 17.5 13.405 17.5 13.75C17.5 14.095 17.22 14.375 16.875 14.375Z" fill="#1976D2"/>
<path d="M11.0238 0.770332C10.8813 0.650332 10.69 0.600332 10.51 0.636582L0.51 2.51158C0.215 2.56658 0 2.82533 0 3.12533V16.8753C0 17.1753 0.21375 17.4341 0.51 17.4891L10.51 19.3641C10.5487 19.3716 10.5863 19.3753 10.625 19.3753C10.77 19.3753 10.9113 19.3253 11.0238 19.2316C11.1675 19.1128 11.25 18.9366 11.25 18.7503V1.25033C11.25 1.06408 11.1675 0.889082 11.0238 0.770332Z" fill="#1565C0"/>
<path d="M8.12134 13.1951C8.08884 13.4813 7.86384 13.7101 7.57759 13.7451C7.55134 13.7488 7.52634 13.7501 7.50009 13.7501C7.24259 13.7501 7.00759 13.5901 6.91509 13.3451L5.62509 9.90506L4.33509 13.3451C4.23509 13.6126 3.97259 13.7763 3.68259 13.7463C3.39884 13.7163 3.17134 13.4963 3.13134 13.2126L2.50634 8.83756C2.45759 8.49756 2.69509 8.18006 3.03634 8.13131C3.37884 8.08131 3.69509 8.32006 3.74384 8.66131L4.02259 10.6163L5.03884 7.90506C5.22134 7.41756 6.02634 7.41756 6.21009 7.90506L7.16759 10.4576L7.50384 7.43006C7.54259 7.08756 7.86009 6.84131 8.19384 6.87756C8.53759 6.91756 8.78384 7.22631 8.74634 7.56881L8.12134 13.1951Z" fill="#FAFAFA"/>
</svg>
